<svg width="7317" height="1457" viewBox="0 0 7317 1457" fill="none" xmlns="http://www.w3.org/2000/svg">
<path d="M329.263 902.336L631.449 1076.81L933.636 902.336V553.4L631.449 378.933L329.263 553.4V902.336ZM631.449 1096.74L312 912.303V543.44L631.449 359L950.889 543.44V912.303L631.449 1096.74Z" fill="#000080"/>
<path d="M1244.64 463.4C1228.63 454.853 1212.38 446.947 1195.95 439.72C1195.95 439.707 1195.95 439.707 1195.94 439.707L1144.38 316.053H1144.39L1244.64 373.947V463.4ZM1244.64 594.773C1243.14 593.48 1241.64 592.213 1240.11 590.947C1183.79 543.76 1122.46 505.813 1057.8 478.173C995.564 451.56 932.057 435.84 874.151 432.68C833.204 430.453 794.891 434.613 760.96 444.613L781.805 456.653C808.045 450.733 836.604 448.373 866.737 449.547L882.884 515.013L903.204 526.733L884.431 450.6C921.884 453.653 961.444 461.827 1001.67 475.027L1001.36 690.635V690.632C982.404 672.043 962.377 655.267 941.591 640.273V661.363C1060.28 751.447 1161.1 912.077 1171.04 1125.25L1074.55 1180.96C1075.3 1175.93 1075.96 1170.9 1076.6 1165.85C1085.74 1092.93 1084.36 1020.83 1072.52 951.507C1061.12 884.803 1039.92 822.897 1011.16 772.516C991.297 737.731 967.671 708.349 941.591 685.481V708.564C960.537 727.269 977.791 749.777 992.977 775.449L941.591 829.964V854.621L1001.67 790.888V790.889C1019.46 824.019 1034 861.693 1044.74 902.624C1044.74 902.627 1044.74 902.629 1044.74 902.632L863.377 1019.29C863.391 1019.29 863.391 1019.29 863.391 1019.29C868.351 995.181 871.551 971.145 873.057 947.369L855.177 957.688C842.284 1108.83 758.248 1283.08 577.477 1406.4L481.492 1350.97C489.335 1347.52 497.137 1343.92 504.896 1340.19C571.113 1308.3 630.947 1268.05 682.765 1220.54C732.661 1174.79 773.148 1123.39 799.893 1071.91C817.804 1037.46 829.497 1002.78 834.831 969.443L815.524 980.583C810.017 1006.07 800.607 1032.16 787.588 1058.23L706.881 1043.31L684.313 1056.34L779.348 1073.91C779.347 1073.91 779.345 1073.92 779.344 1073.92C761.14 1106.79 737.377 1139.46 708.795 1170.69L512.443 1081.55H512.444C533.38 1073.42 553.456 1064.07 572.617 1053.67L555.271 1043.66C418.08 1114.67 221.813 1136.38 16.912 1044.59V933.959C27.2293 940.976 37.7373 947.763 48.436 954.317C111.123 992.671 177.383 1021.13 245.417 1038.91C295.441 1051.97 345.273 1058.66 391.765 1058.66C406.12 1058.66 420.159 1058.02 433.796 1056.73C470.936 1053.23 505.084 1044.76 535.101 1032.01L516.516 1021.28C492.767 1029.97 466.593 1035.89 438.616 1038.97H438.612L404.809 956.787L380.827 942.94L420.968 1040.54H420.963C383.476 1043.07 343.137 1040.81 301.403 1033.73L269.833 820.415C286.12 832.232 302.885 842.855 319.961 852.457V832.932C184.311 753.213 59.3293 595.133 29.7667 366.52L140.805 302.413C140.553 306.6 140.361 310.813 140.193 315.013C137.339 388.44 144.865 460.187 162.583 528.213C179.644 593.72 206.072 653.569 239.055 701.309C262.937 735.889 290.448 764.169 319.961 785.035V755.676L316.516 761.371C295.02 743.952 275 722.18 256.884 696.857L319.961 617.281V590.053L246.9 682.223C246.9 682.22 246.897 682.217 246.897 682.217V682.196C226.371 650.719 208.655 614.42 194.448 574.547L365.147 442.813V442.827C361.897 470.467 360.944 497.787 362.071 524.587L378.717 514.973C374.98 356.52 447.077 163.613 632.32 20.4266L843.724 142.48C774.291 164.173 709.828 194.933 652.088 233.893C595.997 271.76 548.343 316.587 514.283 363.56C489.871 397.227 472.38 432.2 462.472 466.627L484.444 453.933C493.691 428.76 507.172 403.547 524.443 378.907L580.82 398.293L600.236 387.08L534.916 364.627C534.916 364.613 534.917 364.613 534.917 364.613C557.793 334.787 586.12 306 618.995 279.333L800.027 396.52C800.024 396.52 800.021 396.52 800.021 396.52H800C772.385 402.747 745.864 411.107 720.591 421.307L739.377 432.147C876.631 381.093 1062.51 381.4 1244.64 482.44V594.773ZM1161.38 552.933C1161.39 552.933 1161.39 552.947 1161.4 552.947L1161.38 552.933ZM1066.42 766.829C1051.42 745.876 1035.31 726.193 1018.26 707.969C1018.24 707.968 1018.24 707.968 1018.24 707.968L1018.58 480.84C1066.31 498.027 1114.67 522.147 1161.34 552.92L1156.48 550.893L1066.42 766.829ZM1244.64 695.663L1139.28 900.04C1126.35 867.864 1110.9 836.851 1093.03 807.253C1088.12 799.135 1083.06 791.164 1077.84 783.34L1171.22 559.493C1196.35 576.653 1220.96 595.773 1244.64 616.783V695.663ZM1244.64 922.561L1175.52 1023.01C1168.66 987.701 1159.1 953.281 1146.96 920.025V920.021L1147.79 920.451L1244.64 732.579V922.561ZM1244.64 1082.76L1187.32 1115.84C1185.88 1092.52 1183.35 1069.46 1179.71 1046.75L1244.64 952.416V1082.76ZM1065.86 1079.11L1064.92 1073.86L834.671 1115.25C844.151 1091.28 851.924 1067.09 857.991 1042.88V1042.87L1049 919.999C1049.02 920 1049.02 920.001 1049.02 920.004C1060.44 969.456 1066.42 1023.2 1065.86 1079.1V1079.11ZM1056.07 1191.62L991.844 1228.7L991.831 1228.71L991.604 1226.38L762.244 1248.72C782.263 1220.41 799.937 1190.62 815.111 1159.55C819.284 1151.01 823.231 1142.45 826.951 1133.82L1065.64 1090.91C1064.8 1123.93 1061.7 1157.65 1056.07 1191.62ZM783.593 1348.96H783.572L678.559 1345.85C704.5 1320.93 728.243 1294.26 749.596 1266.02L749.6 1266.01L749.689 1266.93L961.351 1246.32L783.593 1348.96ZM630.777 1437.16L593.609 1415.71C617.309 1399.04 639.784 1381.2 660.925 1362.24L755.687 1365.05L630.777 1437.16ZM416.221 1109.44H416.225C441.512 1104.41 466.079 1097.83 489.717 1089.82C489.72 1089.82 489.721 1089.82 489.724 1089.81L696.528 1183.69C661.197 1220.1 619.233 1254.28 571.917 1284.16L571.893 1284.17L575.853 1280.47L416.221 1109.44ZM417.131 1313.81L417.301 1313.68L264.789 1120.94C264.795 1120.94 264.8 1120.94 264.805 1120.94H264.827C299.479 1122.42 334.088 1121.13 368.423 1117.05C377.853 1115.93 387.197 1114.6 396.457 1113.05L396.459 1113.05L561.931 1290.34C561.927 1290.35 561.921 1290.35 561.916 1290.35C531.155 1309.11 498.237 1326.02 463.5 1340.59L417.131 1313.81ZM183.535 1178.95L137.825 1103.31C172.815 1111.59 208.121 1117.07 243.428 1119.71L242.705 1120.29L377.94 1291.19L183.535 1178.95ZM16.912 1082.76V1062.99C48.964 1076.9 81.5653 1088.38 114.484 1097.34L153.195 1161.45L16.912 1082.76ZM194.233 754.693C212.18 773.211 231.015 790.292 250.571 805.788L283.823 1030.47C283.819 1030.47 283.815 1030.47 283.812 1030.47C234.043 1020.51 182.604 1003.79 131.863 980.259L131.824 980.24L137.076 981.563L194.233 754.693ZM16.912 883.171L102.436 633.685C102.443 633.696 102.448 633.707 102.453 633.717C120.024 663.633 139.876 692.028 161.927 718.645C167.973 725.96 174.168 733.085 180.469 740.041C180.472 740.044 180.475 740.048 180.479 740.052L121.233 975.209C121.233 975.209 121.231 975.208 121.228 975.207C85.7507 958.06 50.72 937.552 16.912 913.661V883.171ZM16.912 582.04L48.4574 517.453C60.4654 551.347 74.9907 583.973 91.904 615.069C91.9054 615.072 91.9067 615.075 91.908 615.077L91.0374 614.781L16.912 831.013V582.04ZM16.912 394.933C22.6 429.08 30.5707 462.373 40.7827 494.6L16.912 543.48V394.933ZM385.573 344.733L385.569 344.747C378.192 369.44 372.483 394.213 368.508 418.853L188.693 557.627C173.069 509.32 162.519 456.253 158.291 400.453V400.44L159.703 405.68L385.573 344.733ZM158.037 292.453L243.663 243.027L243.684 243.013L446.332 205.547C428.805 235.48 413.709 266.667 401.256 298.933C397.833 307.787 394.64 316.667 391.659 325.573H391.657L157.487 388.76C155.605 357.347 155.732 325.12 158.037 292.453ZM485.023 103.68L521.367 101.653C497.667 128.693 476.291 157.293 457.432 187.253L457.263 186.347L287.512 217.693L485.023 103.68ZM561.409 59.5732C553.249 67.4799 545.277 75.5599 537.56 83.7866L517.539 84.9066L561.409 59.5732ZM899.311 383.16C873.551 384.413 848.271 387.267 823.711 391.707L633.049 268.28C673.409 237.48 719.96 209.88 771.183 187.32H771.195L766.704 190.413L899.311 383.16ZM863.444 153.88L937.017 196.347H937.031L1050.75 394.16C1016.68 387.573 982.244 383.733 947.697 382.72C938.204 382.44 928.777 382.36 919.391 382.507L781.936 182.707C808.001 171.707 835.231 162.013 863.431 153.88H863.444ZM1120.23 302.12L1173.72 430.373H1173.71C1140.32 417.013 1106.27 406.373 1071.74 398.533L1072.51 398.08L966.217 213.2L1120.23 302.12ZM886.471 147.613L866.084 135.853H866.071L646.993 9.35999L631.052 0.173218L630.777 -0.00012207L480.032 87.0266L447.559 105.773L447.473 105.8L237.744 226.893L237.721 226.92L218.017 238.293L159.813 271.907L142.18 282.08L27.6107 348.213L11.6267 357.453L4.22669 361.72L0 364.173V578.133V616.676V901.356V922.097V1036.75V1055.42V1092.52L171.335 1191.45L201.653 1208.95L443.541 1348.63L461.956 1359.24H461.977L561.727 1416.84L578.091 1426.29L626.549 1454.27L630.777 1456.69L787.863 1366L815.751 1349.91H815.777L1052.16 1213.41L1071.12 1202.46L1171.68 1144.41L1188.26 1134.83L1257.32 1094.95L1261.55 1092.52V927.827V910.025V632.257V609.572V492.147V472.72V364.173L886.471 147.613Z" fill="#000080"/>
<path d="M1430.92 1097V369.96H1545.61V1097H1430.92ZM2175.84 1097H2063.2V796.968C2063.2 746.451 2055.01 709.928 2038.62 687.4C2022.92 664.189 1999.37 652.584 1967.97 652.584C1946.12 652.584 1924.28 658.045 1902.43 668.968C1881.27 679.891 1862.15 694.909 1845.09 714.024C1828.02 733.139 1815.73 754.643 1808.22 778.536V1097H1695.58V561.448H1797.98V668.968C1818.46 633.469 1848.16 605.139 1887.07 583.976C1925.98 562.813 1968.99 552.232 2016.1 552.232C2058.42 552.232 2091.19 562.472 2114.4 582.952C2137.61 602.749 2153.65 629.032 2162.53 661.8C2171.4 694.568 2175.84 730.749 2175.84 770.344V1097ZM2333.3 1097V661.8H2261.62V574.76H2333.3V553.256C2333.3 487.72 2348.66 435.837 2379.38 397.608C2410.79 358.696 2452.43 339.24 2504.31 339.24C2548 339.24 2589.65 350.163 2629.24 372.008L2604.66 455.976C2594.42 449.832 2582.14 444.712 2567.8 440.616C2554.15 436.52 2540.83 434.472 2527.86 434.472C2501.24 434.472 2480.76 444.371 2466.42 464.168C2452.77 483.965 2445.94 512.637 2445.94 550.184V574.76H2583.16V661.8H2445.94V1097H2333.3ZM2899.22 1107.24C2843.25 1107.24 2794.43 1094.61 2752.79 1069.35C2711.83 1043.41 2680.09 1009.62 2657.56 967.976C2635.03 925.651 2623.77 879.571 2623.77 829.736C2623.77 779.901 2635.03 734.163 2657.56 692.52C2680.77 650.195 2712.86 616.403 2753.82 591.144C2795.46 565.203 2843.93 552.232 2899.22 552.232C2954.52 552.232 3002.65 565.203 3043.61 591.144C3085.25 616.403 3117.34 650.195 3139.86 692.52C3163.07 734.163 3174.68 779.901 3174.68 829.736C3174.68 879.571 3163.42 925.651 3140.89 967.976C3118.36 1009.62 3086.27 1043.41 3044.63 1069.35C3003.67 1094.61 2955.2 1107.24 2899.22 1107.24ZM2739.48 830.76C2739.48 864.893 2746.65 895.613 2760.98 922.92C2775.32 950.227 2794.43 971.731 2818.33 987.432C2842.22 1003.13 2869.19 1010.98 2899.22 1010.98C2928.58 1010.98 2955.2 1003.13 2979.1 987.432C3003.67 971.048 3023.13 949.203 3037.46 921.896C3051.8 894.589 3058.97 863.869 3058.97 829.736C3058.97 795.603 3051.8 764.883 3037.46 737.576C3023.13 710.269 3003.67 688.765 2979.1 673.064C2955.2 656.68 2928.58 648.488 2899.22 648.488C2869.87 648.488 2842.9 656.68 2818.33 673.064C2794.43 688.765 2775.32 710.611 2760.98 738.6C2746.65 765.907 2739.48 796.627 2739.48 830.76ZM3541.92 1097V369.96H4026.27V471.336H3656.61V688.424H3965.86V783.656H3656.61V1097H3541.92ZM4388.64 658.728C4344.95 660.093 4306.04 670.333 4271.9 689.448C4238.45 707.88 4214.56 734.504 4200.22 769.32V1097H4087.58V561.448H4192.03V681.256C4210.46 644.392 4234.7 615.037 4264.74 593.192C4294.77 570.664 4326.52 558.376 4359.97 556.328C4366.11 556.328 4371.57 556.328 4376.35 556.328C4381.13 556.328 4385.23 556.669 4388.64 557.352V658.728ZM4430.67 940.328C4430.67 906.195 4440.23 876.499 4459.34 851.24C4478.46 825.299 4505.08 805.501 4539.22 791.848C4574.03 777.512 4613.97 770.344 4659.02 770.344C4682.92 770.344 4707.15 772.392 4731.73 776.488C4756.99 779.901 4779.17 785.021 4798.29 791.848V758.056C4798.29 720.509 4787.02 691.155 4764.5 669.992C4741.97 648.829 4709.54 638.248 4667.22 638.248C4637.86 638.248 4609.53 643.368 4582.22 653.608C4554.92 663.848 4526.59 678.867 4497.23 698.664L4459.34 622.888C4494.84 599.677 4530.34 582.269 4565.84 570.664C4602.02 558.376 4639.91 552.232 4679.5 552.232C4751.18 552.232 4807.5 571.347 4848.46 609.576C4890.11 647.123 4910.93 700.712 4910.93 770.344V970.024C4910.93 982.995 4912.98 992.211 4917.07 997.672C4921.85 1003.13 4929.7 1006.21 4940.62 1006.89V1097C4930.38 1099.05 4921.17 1100.41 4912.98 1101.1C4904.78 1101.78 4897.96 1102.12 4892.5 1102.12C4867.92 1102.12 4849.49 1096.32 4837.2 1084.71C4825.59 1072.42 4818.77 1058.77 4816.72 1043.75L4813.65 1013.03C4790.44 1043.07 4760.74 1066.28 4724.56 1082.66C4688.38 1099.05 4651.86 1107.24 4614.99 1107.24C4579.49 1107.24 4547.75 1100.07 4519.76 1085.74C4491.77 1070.72 4469.93 1050.58 4454.22 1025.32C4438.52 1000.06 4430.67 971.731 4430.67 940.328ZM4771.66 973.096C4789.41 955.347 4798.29 938.621 4798.29 922.92V861.48C4758.01 846.461 4717.05 838.952 4675.41 838.952C4634.45 838.952 4601 847.485 4575.06 864.552C4549.8 880.936 4537.17 903.123 4537.17 931.112C4537.17 954.323 4546.38 975.827 4564.82 995.624C4583.93 1014.74 4611.24 1024.3 4646.74 1024.3C4670.63 1024.3 4693.84 1019.52 4716.37 1009.96C4738.9 1000.4 4757.33 988.115 4771.66 973.096ZM5290.27 1107.24C5234.98 1107.24 5186.51 1094.61 5144.86 1069.35C5103.22 1043.41 5070.79 1009.28 5047.58 966.952C5024.37 924.627 5012.77 878.547 5012.77 828.712C5012.77 778.877 5024.03 733.139 5046.56 691.496C5069.77 649.171 5101.86 615.379 5142.82 590.12C5184.46 564.861 5233.61 552.232 5290.27 552.232C5345.57 552.232 5393.01 564.52 5432.61 589.096C5472.89 612.989 5502.92 645.075 5522.72 685.352L5413.15 720.168C5400.86 697.64 5383.46 680.232 5360.93 667.944C5339.08 654.973 5314.85 648.488 5288.22 648.488C5258.19 648.488 5230.88 656.339 5206.3 672.04C5182.41 687.059 5163.3 708.221 5148.96 735.528C5135.31 762.835 5128.48 793.896 5128.48 828.712C5128.48 863.528 5135.65 894.589 5149.98 921.896C5165 949.203 5184.46 971.048 5208.35 987.432C5232.93 1003.13 5259.89 1010.98 5289.25 1010.98C5316.55 1010.98 5342.5 1003.82 5367.07 989.48C5391.65 975.144 5408.03 957.736 5416.22 937.256L5526.82 970.024C5509.07 1010.3 5479.37 1043.41 5437.73 1069.35C5396.09 1094.61 5346.93 1107.24 5290.27 1107.24ZM5917.57 1069.35C5903.23 1076.18 5883.43 1084.03 5858.18 1092.9C5832.92 1101.1 5805.95 1105.19 5777.28 1105.19C5741.78 1105.19 5711.06 1095.63 5685.12 1076.52C5659.86 1057.41 5647.23 1026.34 5647.23 983.336V648.488H5576.58V561.448H5647.23V385.32H5759.87V561.448H5876.61V648.488H5759.87V947.496C5761.24 966.611 5767.04 980.605 5777.28 989.48C5788.2 997.672 5801.51 1001.77 5817.22 1001.77C5832.92 1001.77 5847.94 999.037 5862.27 993.576C5876.61 988.115 5887.19 983.677 5894.02 980.264L5917.57 1069.35ZM5956.67 940.328C5956.67 906.195 5966.23 876.499 5985.34 851.24C6004.46 825.299 6031.08 805.501 6065.22 791.848C6100.03 777.512 6139.97 770.344 6185.02 770.344C6208.92 770.344 6233.15 772.392 6257.73 776.488C6282.99 779.901 6305.17 785.021 6324.29 791.848V758.056C6324.29 720.509 6313.02 691.155 6290.5 669.992C6267.97 648.829 6235.54 638.248 6193.22 638.248C6163.86 638.248 6135.53 643.368 6108.22 653.608C6080.92 663.848 6052.59 678.867 6023.23 698.664L5985.34 622.888C6020.84 599.677 6056.34 582.269 6091.84 570.664C6128.02 558.376 6165.91 552.232 6205.5 552.232C6277.18 552.232 6333.5 571.347 6374.46 609.576C6416.11 647.123 6436.93 700.712 6436.93 770.344V970.024C6436.93 982.995 6438.98 992.211 6443.07 997.672C6447.85 1003.13 6455.7 1006.21 6466.62 1006.89V1097C6456.38 1099.05 6447.17 1100.41 6438.98 1101.1C6430.78 1101.78 6423.96 1102.12 6418.5 1102.12C6393.92 1102.12 6375.49 1096.32 6363.2 1084.71C6351.59 1072.42 6344.77 1058.77 6342.72 1043.75L6339.65 1013.03C6316.44 1043.07 6286.74 1066.28 6250.56 1082.66C6214.38 1099.05 6177.86 1107.24 6140.99 1107.24C6105.49 1107.24 6073.75 1100.07 6045.76 1085.74C6017.77 1070.72 5995.93 1050.58 5980.22 1025.32C5964.52 1000.06 5956.67 971.731 5956.67 940.328ZM6297.66 973.096C6315.41 955.347 6324.29 938.621 6324.29 922.92V861.48C6284.01 846.461 6243.05 838.952 6201.41 838.952C6160.45 838.952 6127 847.485 6101.06 864.552C6075.8 880.936 6063.17 903.123 6063.17 931.112C6063.17 954.323 6072.38 975.827 6090.82 995.624C6109.93 1014.74 6137.24 1024.3 6172.74 1024.3C6196.63 1024.3 6219.84 1019.52 6242.37 1009.96C6264.9 1000.4 6283.33 988.115 6297.66 973.096ZM6574.61 349.48H6687.25V942.376C6687.25 969.683 6691.34 987.091 6699.54 994.6C6707.73 1002.11 6717.97 1005.86 6730.26 1005.86C6743.91 1005.86 6756.88 1004.5 6769.17 1001.77C6781.46 999.037 6791.7 995.624 6799.89 991.528L6816.27 1080.62C6799.89 1087.44 6780.43 1093.25 6757.9 1098.02C6735.38 1102.8 6715.24 1105.19 6697.49 1105.19C6659.26 1105.19 6629.22 1094.61 6607.38 1073.45C6585.53 1051.6 6574.61 1021.57 6574.61 983.336V349.48ZM7072.05 1107.24C7026.99 1107.24 6984.33 1099.73 6944.05 1084.71C6903.77 1069.69 6869.3 1047.85 6840.62 1019.18L6882.61 943.4C6913.33 970.707 6944.05 990.504 6974.77 1002.79C7005.49 1015.08 7036.55 1021.22 7067.95 1021.22C7099.35 1021.22 7124.95 1015.42 7144.75 1003.82C7164.55 991.528 7174.45 973.779 7174.45 950.568C7174.45 934.184 7169.33 921.555 7159.09 912.68C7148.85 903.805 7133.83 896.637 7114.03 891.176C7094.92 885.715 7071.71 878.888 7044.4 870.696C7006.17 859.091 6974.09 847.144 6948.14 834.856C6922.2 821.885 6902.75 806.184 6889.78 787.752C6876.81 769.32 6870.32 745.768 6870.32 717.096C6870.32 665.213 6889.78 624.936 6928.69 596.264C6967.6 566.909 7018.46 552.232 7081.26 552.232C7120.18 552.232 7156.02 558.376 7188.78 570.664C7222.23 582.269 7251.59 600.701 7276.85 625.96L7228.72 700.712C7182.3 658.387 7131.1 637.224 7075.12 637.224C7050.54 637.224 7027.67 642.003 7006.51 651.56C6986.03 661.117 6975.79 678.867 6975.79 704.808C6975.79 726.653 6985.01 742.355 7003.44 751.912C7021.87 761.469 7049.18 771.709 7085.36 782.632C7126.32 794.92 7161.48 807.208 7190.83 819.496C7220.87 831.101 7243.74 846.461 7259.44 865.576C7275.82 884.008 7284.02 909.608 7284.02 942.376C7284.02 994.259 7264.56 1034.88 7225.65 1064.23C7186.74 1092.9 7135.54 1107.24 7072.05 1107.24Z" fill="#000080"/>
</svg>
