<svg width="7321" height="1465" viewBox="0 0 7321 1465" fill="none" xmlns="http://www.w3.org/2000/svg">
<g filter="url(#filter0_d)">
<path d="M333.263 902.336L635.449 1076.81L937.636 902.336V553.4L635.449 378.933L333.263 553.4V902.336ZM635.449 1096.74L316 912.303V543.44L635.449 359L954.889 543.44V912.303L635.449 1096.74Z" fill="white"/>
<path d="M1248.64 463.4C1232.63 454.853 1216.38 446.947 1199.95 439.72C1199.95 439.707 1199.95 439.707 1199.94 439.707L1148.38 316.053H1148.39L1248.64 373.947V463.4ZM1248.64 594.773C1247.14 593.48 1245.64 592.213 1244.11 590.947C1187.79 543.76 1126.46 505.813 1061.8 478.173C999.564 451.56 936.057 435.84 878.151 432.68C837.204 430.453 798.891 434.613 764.96 444.613L785.805 456.653C812.045 450.733 840.604 448.373 870.737 449.547L886.884 515.013L907.204 526.733L888.431 450.6C925.884 453.653 965.444 461.827 1005.67 475.027L1005.36 690.635V690.632C986.404 672.043 966.377 655.267 945.591 640.273V661.363C1064.28 751.447 1165.1 912.077 1175.04 1125.25L1078.55 1180.96C1079.3 1175.93 1079.96 1170.9 1080.6 1165.85C1089.74 1092.93 1088.36 1020.83 1076.52 951.507C1065.12 884.803 1043.92 822.897 1015.16 772.516C995.297 737.731 971.671 708.349 945.591 685.481V708.564C964.537 727.269 981.791 749.777 996.977 775.449L945.591 829.964V854.621L1005.67 790.888V790.889C1023.46 824.019 1038 861.693 1048.74 902.624C1048.74 902.627 1048.74 902.629 1048.74 902.632L867.377 1019.29C867.391 1019.29 867.391 1019.29 867.391 1019.29C872.351 995.181 875.551 971.145 877.057 947.369L859.177 957.688C846.284 1108.83 762.248 1283.08 581.477 1406.4L485.492 1350.97C493.335 1347.52 501.137 1343.92 508.896 1340.19C575.113 1308.3 634.947 1268.05 686.765 1220.54C736.661 1174.79 777.148 1123.39 803.893 1071.91C821.804 1037.46 833.497 1002.78 838.831 969.443L819.524 980.583C814.017 1006.07 804.607 1032.16 791.588 1058.23L710.881 1043.31L688.313 1056.34L783.348 1073.91C783.347 1073.91 783.345 1073.92 783.344 1073.92C765.14 1106.79 741.377 1139.46 712.795 1170.69L516.443 1081.55H516.444C537.38 1073.42 557.456 1064.07 576.617 1053.67L559.271 1043.66C422.08 1114.67 225.813 1136.38 20.912 1044.59V933.959C31.2293 940.976 41.7373 947.763 52.436 954.317C115.123 992.671 181.383 1021.13 249.417 1038.91C299.441 1051.97 349.273 1058.66 395.765 1058.66C410.12 1058.66 424.159 1058.02 437.796 1056.73C474.936 1053.23 509.084 1044.76 539.101 1032.01L520.516 1021.28C496.767 1029.97 470.593 1035.89 442.616 1038.97H442.612L408.809 956.787L384.827 942.94L424.968 1040.54H424.963C387.476 1043.07 347.137 1040.81 305.403 1033.73L273.833 820.415C290.12 832.232 306.885 842.855 323.961 852.457V832.932C188.311 753.213 63.3293 595.133 33.7667 366.52L144.805 302.413C144.553 306.6 144.361 310.813 144.193 315.013C141.339 388.44 148.865 460.187 166.583 528.213C183.644 593.72 210.072 653.569 243.055 701.309C266.937 735.889 294.448 764.169 323.961 785.035V755.676L320.516 761.371C299.02 743.952 279 722.18 260.884 696.857L323.961 617.281V590.053L250.9 682.223C250.9 682.22 250.897 682.217 250.897 682.217V682.196C230.371 650.719 212.655 614.42 198.448 574.547L369.147 442.813V442.827C365.897 470.467 364.944 497.787 366.071 524.587L382.717 514.973C378.98 356.52 451.077 163.613 636.32 20.4266L847.724 142.48C778.291 164.173 713.828 194.933 656.088 233.893C599.997 271.76 552.343 316.587 518.283 363.56C493.871 397.227 476.38 432.2 466.472 466.627L488.444 453.933C497.691 428.76 511.172 403.547 528.443 378.907L584.82 398.293L604.236 387.08L538.916 364.627C538.916 364.613 538.917 364.613 538.917 364.613C561.793 334.787 590.12 306 622.995 279.333L804.027 396.52C804.024 396.52 804.021 396.52 804.021 396.52H804C776.385 402.747 749.864 411.107 724.591 421.307L743.377 432.147C880.631 381.093 1066.51 381.4 1248.64 482.44V594.773ZM1165.38 552.933C1165.39 552.933 1165.39 552.947 1165.4 552.947L1165.38 552.933ZM1070.42 766.829C1055.42 745.876 1039.31 726.193 1022.26 707.969C1022.24 707.968 1022.24 707.968 1022.24 707.968L1022.58 480.84C1070.31 498.027 1118.67 522.147 1165.34 552.92L1160.48 550.893L1070.42 766.829ZM1248.64 695.663L1143.28 900.04C1130.35 867.864 1114.9 836.851 1097.03 807.253C1092.12 799.135 1087.06 791.164 1081.84 783.34L1175.22 559.493C1200.35 576.653 1224.96 595.773 1248.64 616.783V695.663ZM1248.64 922.561L1179.52 1023.01C1172.66 987.701 1163.1 953.281 1150.96 920.025V920.021L1151.79 920.451L1248.64 732.579V922.561ZM1248.64 1082.76L1191.32 1115.84C1189.88 1092.52 1187.35 1069.46 1183.71 1046.75L1248.64 952.416V1082.76ZM1069.86 1079.11L1068.92 1073.86L838.671 1115.25C848.151 1091.28 855.924 1067.09 861.991 1042.88V1042.87L1053 919.999C1053.02 920 1053.02 920.001 1053.02 920.004C1064.44 969.456 1070.42 1023.2 1069.86 1079.1V1079.11ZM1060.07 1191.62L995.844 1228.7L995.831 1228.71L995.604 1226.38L766.244 1248.72C786.263 1220.41 803.937 1190.62 819.111 1159.55C823.284 1151.01 827.231 1142.45 830.951 1133.82L1069.64 1090.91C1068.8 1123.93 1065.7 1157.65 1060.07 1191.62ZM787.593 1348.96H787.572L682.559 1345.85C708.5 1320.93 732.243 1294.26 753.596 1266.02L753.6 1266.01L753.689 1266.93L965.351 1246.32L787.593 1348.96ZM634.777 1437.16L597.609 1415.71C621.309 1399.04 643.784 1381.2 664.925 1362.24L759.687 1365.05L634.777 1437.16ZM420.221 1109.44H420.225C445.512 1104.41 470.079 1097.83 493.717 1089.82C493.72 1089.82 493.721 1089.82 493.724 1089.81L700.528 1183.69C665.197 1220.1 623.233 1254.28 575.917 1284.16L575.893 1284.17L579.853 1280.47L420.221 1109.44ZM421.131 1313.81L421.301 1313.68L268.789 1120.94C268.795 1120.94 268.8 1120.94 268.805 1120.94H268.827C303.479 1122.42 338.088 1121.13 372.423 1117.05C381.853 1115.93 391.197 1114.6 400.457 1113.05L400.459 1113.05L565.931 1290.34C565.927 1290.35 565.921 1290.35 565.916 1290.35C535.155 1309.11 502.237 1326.02 467.5 1340.59L421.131 1313.81ZM187.535 1178.95L141.825 1103.31C176.815 1111.59 212.121 1117.07 247.428 1119.71L246.705 1120.29L381.94 1291.19L187.535 1178.95ZM20.912 1082.76V1062.99C52.964 1076.9 85.5653 1088.38 118.484 1097.34L157.195 1161.45L20.912 1082.76ZM198.233 754.693C216.18 773.211 235.015 790.292 254.571 805.788L287.823 1030.47C287.819 1030.47 287.815 1030.47 287.812 1030.47C238.043 1020.51 186.604 1003.79 135.863 980.259L135.824 980.24L141.076 981.563L198.233 754.693ZM20.912 883.171L106.436 633.685C106.443 633.696 106.448 633.707 106.453 633.717C124.024 663.633 143.876 692.028 165.927 718.645C171.973 725.96 178.168 733.085 184.469 740.041C184.472 740.044 184.475 740.048 184.479 740.052L125.233 975.209C125.233 975.209 125.231 975.208 125.228 975.207C89.7507 958.06 54.72 937.552 20.912 913.661V883.171ZM20.912 582.04L52.4574 517.453C64.4654 551.347 78.9907 583.973 95.904 615.069C95.9054 615.072 95.9067 615.075 95.908 615.077L95.0374 614.781L20.912 831.013V582.04ZM20.912 394.933C26.6 429.08 34.5707 462.373 44.7827 494.6L20.912 543.48V394.933ZM389.573 344.733L389.569 344.747C382.192 369.44 376.483 394.213 372.508 418.853L192.693 557.627C177.069 509.32 166.519 456.253 162.291 400.453V400.44L163.703 405.68L389.573 344.733ZM162.037 292.453L247.663 243.027L247.684 243.013L450.332 205.547C432.805 235.48 417.709 266.667 405.256 298.933C401.833 307.787 398.64 316.667 395.659 325.573H395.657L161.487 388.76C159.605 357.347 159.732 325.12 162.037 292.453ZM489.023 103.68L525.367 101.653C501.667 128.693 480.291 157.293 461.432 187.253L461.263 186.347L291.512 217.693L489.023 103.68ZM565.409 59.5732C557.249 67.4799 549.277 75.5599 541.56 83.7866L521.539 84.9066L565.409 59.5732ZM903.311 383.16C877.551 384.413 852.271 387.267 827.711 391.707L637.049 268.28C677.409 237.48 723.96 209.88 775.183 187.32H775.195L770.704 190.413L903.311 383.16ZM867.444 153.88L941.017 196.347H941.031L1054.75 394.16C1020.68 387.573 986.244 383.733 951.697 382.72C942.204 382.44 932.777 382.36 923.391 382.507L785.936 182.707C812.001 171.707 839.231 162.013 867.431 153.88H867.444ZM1124.23 302.12L1177.72 430.373H1177.71C1144.32 417.013 1110.27 406.373 1075.74 398.533L1076.51 398.08L970.217 213.2L1124.23 302.12ZM890.471 147.613L870.084 135.853H870.071L650.993 9.35999L635.052 0.173218L634.777 -0.00012207L484.032 87.0266L451.559 105.773L451.473 105.8L241.744 226.893L241.721 226.92L222.017 238.293L163.813 271.907L146.18 282.08L31.6107 348.213L15.6267 357.453L8.22669 361.72L4 364.173V578.133V616.676V901.356V922.097V1036.75V1055.42V1092.52L175.335 1191.45L205.653 1208.95L447.541 1348.63L465.956 1359.24H465.977L565.727 1416.84L582.091 1426.29L630.549 1454.27L634.777 1456.69L791.863 1366L819.751 1349.91H819.777L1056.16 1213.41L1075.12 1202.46L1175.68 1144.41L1192.26 1134.83L1261.32 1094.95L1265.55 1092.52V927.827V910.025V632.257V609.572V492.147V472.72V364.173L890.471 147.613Z" fill="white"/>
<path d="M1434.92 1097V369.96H1549.61V1097H1434.92ZM2179.84 1097H2067.2V796.968C2067.2 746.451 2059.01 709.928 2042.62 687.4C2026.92 664.189 2003.37 652.584 1971.97 652.584C1950.12 652.584 1928.28 658.045 1906.43 668.968C1885.27 679.891 1866.15 694.909 1849.09 714.024C1832.02 733.139 1819.73 754.643 1812.22 778.536V1097H1699.58V561.448H1801.98V668.968C1822.46 633.469 1852.16 605.139 1891.07 583.976C1929.98 562.813 1972.99 552.232 2020.1 552.232C2062.42 552.232 2095.19 562.472 2118.4 582.952C2141.61 602.749 2157.65 629.032 2166.53 661.8C2175.4 694.568 2179.84 730.749 2179.84 770.344V1097ZM2337.3 1097V661.8H2265.62V574.76H2337.3V553.256C2337.3 487.72 2352.66 435.837 2383.38 397.608C2414.79 358.696 2456.43 339.24 2508.31 339.24C2552 339.24 2593.65 350.163 2633.24 372.008L2608.66 455.976C2598.42 449.832 2586.14 444.712 2571.8 440.616C2558.15 436.52 2544.83 434.472 2531.86 434.472C2505.24 434.472 2484.76 444.371 2470.42 464.168C2456.77 483.965 2449.94 512.637 2449.94 550.184V574.76H2587.16V661.8H2449.94V1097H2337.3ZM2903.22 1107.24C2847.25 1107.24 2798.43 1094.61 2756.79 1069.35C2715.83 1043.41 2684.09 1009.62 2661.56 967.976C2639.03 925.651 2627.77 879.571 2627.77 829.736C2627.77 779.901 2639.03 734.163 2661.56 692.52C2684.77 650.195 2716.86 616.403 2757.82 591.144C2799.46 565.203 2847.93 552.232 2903.22 552.232C2958.52 552.232 3006.65 565.203 3047.61 591.144C3089.25 616.403 3121.34 650.195 3143.86 692.52C3167.07 734.163 3178.68 779.901 3178.68 829.736C3178.68 879.571 3167.42 925.651 3144.89 967.976C3122.36 1009.62 3090.27 1043.41 3048.63 1069.35C3007.67 1094.61 2959.2 1107.24 2903.22 1107.24ZM2743.48 830.76C2743.48 864.893 2750.65 895.613 2764.98 922.92C2779.32 950.227 2798.43 971.731 2822.33 987.432C2846.22 1003.13 2873.19 1010.98 2903.22 1010.98C2932.58 1010.98 2959.2 1003.13 2983.1 987.432C3007.67 971.048 3027.13 949.203 3041.46 921.896C3055.8 894.589 3062.97 863.869 3062.97 829.736C3062.97 795.603 3055.8 764.883 3041.46 737.576C3027.13 710.269 3007.67 688.765 2983.1 673.064C2959.2 656.68 2932.58 648.488 2903.22 648.488C2873.87 648.488 2846.9 656.68 2822.33 673.064C2798.43 688.765 2779.32 710.611 2764.98 738.6C2750.65 765.907 2743.48 796.627 2743.48 830.76ZM3545.92 1097V369.96H4030.27V471.336H3660.61V688.424H3969.86V783.656H3660.61V1097H3545.92ZM4392.64 658.728C4348.95 660.093 4310.04 670.333 4275.9 689.448C4242.45 707.88 4218.56 734.504 4204.22 769.32V1097H4091.58V561.448H4196.03V681.256C4214.46 644.392 4238.7 615.037 4268.74 593.192C4298.77 570.664 4330.52 558.376 4363.97 556.328C4370.11 556.328 4375.57 556.328 4380.35 556.328C4385.13 556.328 4389.23 556.669 4392.64 557.352V658.728ZM4434.67 940.328C4434.67 906.195 4444.23 876.499 4463.34 851.24C4482.46 825.299 4509.08 805.501 4543.22 791.848C4578.03 777.512 4617.97 770.344 4663.02 770.344C4686.92 770.344 4711.15 772.392 4735.73 776.488C4760.99 779.901 4783.17 785.021 4802.29 791.848V758.056C4802.29 720.509 4791.02 691.155 4768.5 669.992C4745.97 648.829 4713.54 638.248 4671.22 638.248C4641.86 638.248 4613.53 643.368 4586.22 653.608C4558.92 663.848 4530.59 678.867 4501.23 698.664L4463.34 622.888C4498.84 599.677 4534.34 582.269 4569.84 570.664C4606.02 558.376 4643.91 552.232 4683.5 552.232C4755.18 552.232 4811.5 571.347 4852.46 609.576C4894.11 647.123 4914.93 700.712 4914.93 770.344V970.024C4914.93 982.995 4916.98 992.211 4921.07 997.672C4925.85 1003.13 4933.7 1006.21 4944.62 1006.89V1097C4934.38 1099.05 4925.17 1100.41 4916.98 1101.1C4908.78 1101.78 4901.96 1102.12 4896.5 1102.12C4871.92 1102.12 4853.49 1096.32 4841.2 1084.71C4829.59 1072.42 4822.77 1058.77 4820.72 1043.75L4817.65 1013.03C4794.44 1043.07 4764.74 1066.28 4728.56 1082.66C4692.38 1099.05 4655.86 1107.24 4618.99 1107.24C4583.49 1107.24 4551.75 1100.07 4523.76 1085.74C4495.77 1070.72 4473.93 1050.58 4458.22 1025.32C4442.52 1000.06 4434.67 971.731 4434.67 940.328ZM4775.66 973.096C4793.41 955.347 4802.29 938.621 4802.29 922.92V861.48C4762.01 846.461 4721.05 838.952 4679.41 838.952C4638.45 838.952 4605 847.485 4579.06 864.552C4553.8 880.936 4541.17 903.123 4541.17 931.112C4541.17 954.323 4550.38 975.827 4568.82 995.624C4587.93 1014.74 4615.24 1024.3 4650.74 1024.3C4674.63 1024.3 4697.84 1019.52 4720.37 1009.96C4742.9 1000.4 4761.33 988.115 4775.66 973.096ZM5294.27 1107.24C5238.98 1107.24 5190.51 1094.61 5148.86 1069.35C5107.22 1043.41 5074.79 1009.28 5051.58 966.952C5028.37 924.627 5016.77 878.547 5016.77 828.712C5016.77 778.877 5028.03 733.139 5050.56 691.496C5073.77 649.171 5105.86 615.379 5146.82 590.12C5188.46 564.861 5237.61 552.232 5294.27 552.232C5349.57 552.232 5397.01 564.52 5436.61 589.096C5476.89 612.989 5506.92 645.075 5526.72 685.352L5417.15 720.168C5404.86 697.64 5387.46 680.232 5364.93 667.944C5343.08 654.973 5318.85 648.488 5292.22 648.488C5262.19 648.488 5234.88 656.339 5210.3 672.04C5186.41 687.059 5167.3 708.221 5152.96 735.528C5139.31 762.835 5132.48 793.896 5132.48 828.712C5132.48 863.528 5139.65 894.589 5153.98 921.896C5169 949.203 5188.46 971.048 5212.35 987.432C5236.93 1003.13 5263.89 1010.98 5293.25 1010.98C5320.55 1010.98 5346.5 1003.82 5371.07 989.48C5395.65 975.144 5412.03 957.736 5420.22 937.256L5530.82 970.024C5513.07 1010.3 5483.37 1043.41 5441.73 1069.35C5400.09 1094.61 5350.93 1107.24 5294.27 1107.24ZM5921.57 1069.35C5907.23 1076.18 5887.43 1084.03 5862.18 1092.9C5836.92 1101.1 5809.95 1105.19 5781.28 1105.19C5745.78 1105.19 5715.06 1095.63 5689.12 1076.52C5663.86 1057.41 5651.23 1026.34 5651.23 983.336V648.488H5580.58V561.448H5651.23V385.32H5763.87V561.448H5880.61V648.488H5763.87V947.496C5765.24 966.611 5771.04 980.605 5781.28 989.48C5792.2 997.672 5805.51 1001.77 5821.22 1001.77C5836.92 1001.77 5851.94 999.037 5866.27 993.576C5880.61 988.115 5891.19 983.677 5898.02 980.264L5921.57 1069.35ZM5960.67 940.328C5960.67 906.195 5970.23 876.499 5989.34 851.24C6008.46 825.299 6035.08 805.501 6069.22 791.848C6104.03 777.512 6143.97 770.344 6189.02 770.344C6212.92 770.344 6237.15 772.392 6261.73 776.488C6286.99 779.901 6309.17 785.021 6328.29 791.848V758.056C6328.29 720.509 6317.02 691.155 6294.5 669.992C6271.97 648.829 6239.54 638.248 6197.22 638.248C6167.86 638.248 6139.53 643.368 6112.22 653.608C6084.92 663.848 6056.59 678.867 6027.23 698.664L5989.34 622.888C6024.84 599.677 6060.34 582.269 6095.84 570.664C6132.02 558.376 6169.91 552.232 6209.5 552.232C6281.18 552.232 6337.5 571.347 6378.46 609.576C6420.11 647.123 6440.93 700.712 6440.93 770.344V970.024C6440.93 982.995 6442.98 992.211 6447.07 997.672C6451.85 1003.13 6459.7 1006.21 6470.62 1006.89V1097C6460.38 1099.05 6451.17 1100.41 6442.98 1101.1C6434.78 1101.78 6427.96 1102.12 6422.5 1102.12C6397.92 1102.12 6379.49 1096.32 6367.2 1084.71C6355.59 1072.42 6348.77 1058.77 6346.72 1043.75L6343.65 1013.03C6320.44 1043.07 6290.74 1066.28 6254.56 1082.66C6218.38 1099.05 6181.86 1107.24 6144.99 1107.24C6109.49 1107.24 6077.75 1100.07 6049.76 1085.74C6021.77 1070.72 5999.93 1050.58 5984.22 1025.32C5968.52 1000.06 5960.67 971.731 5960.67 940.328ZM6301.66 973.096C6319.41 955.347 6328.29 938.621 6328.29 922.92V861.48C6288.01 846.461 6247.05 838.952 6205.41 838.952C6164.45 838.952 6131 847.485 6105.06 864.552C6079.8 880.936 6067.17 903.123 6067.17 931.112C6067.17 954.323 6076.38 975.827 6094.82 995.624C6113.93 1014.74 6141.24 1024.3 6176.74 1024.3C6200.63 1024.3 6223.84 1019.52 6246.37 1009.96C6268.9 1000.4 6287.33 988.115 6301.66 973.096ZM6578.61 349.48H6691.25V942.376C6691.25 969.683 6695.34 987.091 6703.54 994.6C6711.73 1002.11 6721.97 1005.86 6734.26 1005.86C6747.91 1005.86 6760.88 1004.5 6773.17 1001.77C6785.46 999.037 6795.7 995.624 6803.89 991.528L6820.27 1080.62C6803.89 1087.44 6784.43 1093.25 6761.9 1098.02C6739.38 1102.8 6719.24 1105.19 6701.49 1105.19C6663.26 1105.19 6633.22 1094.61 6611.38 1073.45C6589.53 1051.6 6578.61 1021.57 6578.61 983.336V349.48ZM7076.05 1107.24C7030.99 1107.24 6988.33 1099.73 6948.05 1084.71C6907.77 1069.69 6873.3 1047.85 6844.62 1019.18L6886.61 943.4C6917.33 970.707 6948.05 990.504 6978.77 1002.79C7009.49 1015.08 7040.55 1021.22 7071.95 1021.22C7103.35 1021.22 7128.95 1015.42 7148.75 1003.82C7168.55 991.528 7178.45 973.779 7178.45 950.568C7178.45 934.184 7173.33 921.555 7163.09 912.68C7152.85 903.805 7137.83 896.637 7118.03 891.176C7098.92 885.715 7075.71 878.888 7048.4 870.696C7010.17 859.091 6978.09 847.144 6952.14 834.856C6926.2 821.885 6906.75 806.184 6893.78 787.752C6880.81 769.32 6874.32 745.768 6874.32 717.096C6874.32 665.213 6893.78 624.936 6932.69 596.264C6971.6 566.909 7022.46 552.232 7085.26 552.232C7124.18 552.232 7160.02 558.376 7192.78 570.664C7226.23 582.269 7255.59 600.701 7280.85 625.96L7232.72 700.712C7186.3 658.387 7135.1 637.224 7079.12 637.224C7054.54 637.224 7031.67 642.003 7010.51 651.56C6990.03 661.117 6979.79 678.867 6979.79 704.808C6979.79 726.653 6989.01 742.355 7007.44 751.912C7025.87 761.469 7053.18 771.709 7089.36 782.632C7130.32 794.92 7165.48 807.208 7194.83 819.496C7224.87 831.101 7247.74 846.461 7263.44 865.576C7279.82 884.008 7288.02 909.608 7288.02 942.376C7288.02 994.259 7268.56 1034.88 7229.65 1064.23C7190.74 1092.9 7139.54 1107.24 7076.05 1107.24Z" fill="white"/>
</g>
<defs>
<filter id="filter0_d" x="0" y="0" width="7292.02" height="1464.69" filterUnits="userSpaceOnUse" color-interpolation-filters="sRGB">
<feFlood flood-opacity="0" result="BackgroundImageFix"/>
<feColorMatrix in="SourceAlpha" type="matrix" values="0 0 0 0 0 0 0 0 0 0 0 0 0 0 0 0 0 0 127 0"/>
<feOffset dy="4"/>
<feGaussianBlur stdDeviation="2"/>
<feColorMatrix type="matrix" values="0 0 0 0 0 0 0 0 0 0 0 0 0 0 0 0 0 0 0.25 0"/>
<feBlend mode="normal" in2="BackgroundImageFix" result="effect1_dropShadow"/>
<feBlend mode="normal" in="SourceGraphic" in2="effect1_dropShadow" result="shape"/>
</filter>
</defs>
</svg>
